<svg width="32" height="32" viewBox="0 0 45 45" fill="none" xmlns="http://www.w3.org/2000/svg">
<path fill-rule="evenodd" clip-rule="evenodd" d="M44.8122 17.7711C45.6021 13.4271 44.8122 2.90701 33.648 0.251548C30.5603 -0.482869 23.1333 -0.0989416 16.5509 8.27163C14.8188 7.25788 12.8107 6.68766 10.6554 6.68766C6.25141 6.68766 2.2169 9.06413 0.669451 13.0074C-1.41278 18.3692 1.2544 24.8795 11.9171 27.6439C10.6903 26.242 5.20354 22.5101 5.59842 18.166C5.83924 15.5171 8.36283 13.822 10.1754 13.2104C13.0938 12.2257 17.2519 12.5187 20.5046 15.4979C22.8446 10.4861 27.3186 8.29315 30.5954 7.50337C36.7966 6.31859 43.6275 9.08299 44.8122 17.7711Z" fill="#147AFF"/>
<path opacity="0.3" fill-rule="evenodd" clip-rule="evenodd" d="M5.59956 18.9555C4.41484 18.9555 0.187986 16.7932 1.05352 12.168C-1.90375 17.7708 1.25554 25.2742 11.9182 27.6436C11.0576 26.4589 5.99451 22.9047 5.59956 18.9555Z" fill="#147AFF"/>
<path fill-rule="evenodd" clip-rule="evenodd" d="M23.5078 14.229C25.1463 13.0058 26.9149 12.2862 28.6545 12.0059C38.9749 10.8478 40.9935 17.9893 39.8511 21.8447C39.6372 22.5668 38.7997 25.3496 36.8719 26.7516C38.7997 26.2259 40.9026 24.2663 41.6036 23.2467C45.459 17.6389 41.6467 8.9526 32.9596 9.40782C29.3961 9.59222 26.0685 11.5822 23.5078 14.229Z" fill="#147AFF"/>
<path opacity="0.5" fill-rule="evenodd" clip-rule="evenodd" d="M32.8867 12.0307C33.0619 10.9792 34.1704 10.663 34.7416 10.4843C36.2733 10.1373 38.715 10.7891 40.0717 11.6802C37.7936 9.75254 35.3998 9.27053 32.8867 9.40205C29.3232 9.58646 26.0411 11.6119 23.4805 14.2587C25.1189 13.0355 26.8875 12.3159 28.6271 12.0356C30.4066 11.8469 31.6599 11.8555 32.8867 12.0307Z" fill="#147AFF"/>
<path d="M10.25 38.3795L28.3388 17.6992H35.7027L17.8063 38.3795H10.25Z" fill="#147AFF"/>
<path d="M23.9609 34.6889L33.0165 44.9366H40.3804L27.8244 30.1816L23.9609 34.6889Z" fill="#147AFF"/>
<path d="M10.0586 17.7432L17.711 26.566L21.5744 22.0588L17.6148 17.7432H10.0586Z" fill="#147AFF"/>
</svg>
