<svg width="128" height="50" viewBox="0 0 128 50" fill="none" xmlns="http://www.w3.org/2000/svg">
<g clip-path="url(#clip0_4317_408)">
<path fill-rule="evenodd" clip-rule="evenodd" d="M44.8122 17.7711C45.6021 13.4271 44.8122 2.90701 33.648 0.251548C30.5603 -0.482869 23.1333 -0.0989416 16.5509 8.27163C14.8188 7.25788 12.8107 6.68766 10.6554 6.68766C6.25141 6.68766 2.2169 9.06413 0.669451 13.0074C-1.41278 18.3692 1.2544 24.8795 11.9171 27.6439C10.6903 26.242 5.20354 22.5101 5.59842 18.166C5.83924 15.5171 8.36283 13.822 10.1754 13.2104C13.0938 12.2257 17.2519 12.5187 20.5046 15.4979C22.8446 10.4861 27.3186 8.29315 30.5954 7.50337C36.7966 6.31859 43.6275 9.08299 44.8122 17.7711Z" fill="white"/>
<path opacity="0.3" fill-rule="evenodd" clip-rule="evenodd" d="M5.59956 18.9555C4.41484 18.9555 0.187986 16.7932 1.05352 12.168C-1.90375 17.7708 1.25554 25.2742 11.9182 27.6436C11.0576 26.4589 5.99451 22.9047 5.59956 18.9555Z" fill="white"/>
<path fill-rule="evenodd" clip-rule="evenodd" d="M23.5078 14.229C25.1463 13.0058 26.9149 12.2862 28.6545 12.0059C38.9749 10.8478 40.9935 17.9893 39.8511 21.8447C39.6372 22.5668 38.7997 25.3496 36.8719 26.7516C38.7997 26.2259 40.9026 24.2663 41.6036 23.2467C45.459 17.6389 41.6467 8.9526 32.9596 9.40782C29.3961 9.59222 26.0685 11.5822 23.5078 14.229Z" fill="white"/>
<path opacity="0.5" fill-rule="evenodd" clip-rule="evenodd" d="M32.8867 12.0317C33.0619 10.9802 34.1704 10.664 34.7416 10.4853C36.2733 10.1382 38.715 10.79 40.0717 11.6812C37.7936 9.75352 35.3998 9.27151 32.8867 9.40303C29.3232 9.58743 26.0411 11.6129 23.4805 14.2597C25.1189 13.0365 26.8875 12.3169 28.6271 12.0366C30.4066 11.8479 31.6599 11.8565 32.8867 12.0317Z" fill="white"/>
<path d="M10.25 38.3795L28.3388 17.6992H35.7027L17.8063 38.3795H10.25Z" fill="white"/>
<path d="M23.9609 34.687L33.0165 44.9347H40.3804L27.8244 30.1797L23.9609 34.687Z" fill="white"/>
<path d="M10.0586 17.7422L17.711 26.5651L21.5744 22.0578L17.6148 17.7422H10.0586Z" fill="white"/>
<path d="M70.1033 24.7629H65.475C65.3908 24.164 65.2179 23.6322 64.9576 23.1673C64.6967 22.6953 64.362 22.2938 63.9538 21.9627C63.5451 21.6315 63.0728 21.378 62.5375 21.2019C62.0092 21.0257 61.4353 20.9377 60.8152 20.9377C59.6951 20.9377 58.7196 21.216 57.888 21.7725C57.0571 22.3219 56.4125 23.125 55.9543 24.1817C55.4967 25.2313 55.2679 26.5064 55.2679 28.0068C55.2679 29.5496 55.4967 30.8458 55.9543 31.8954C56.4196 32.945 57.0674 33.7375 57.8989 34.2729C58.7299 34.8083 59.6918 35.076 60.7837 35.076C61.3962 35.076 61.9636 34.995 62.4848 34.833C63.013 34.671 63.4815 34.435 63.8902 34.125C64.2989 33.808 64.637 33.424 64.9043 32.9732C65.1793 32.5224 65.3696 32.0081 65.475 31.4305L70.1033 31.4516C69.9837 32.4449 69.6842 33.4029 69.2054 34.3257C68.7331 35.2415 68.0956 36.0622 67.2929 36.7878C66.4967 37.5063 65.5456 38.0769 64.4397 38.4996C63.3408 38.9152 62.0973 39.1231 60.7098 39.1231C58.7793 39.1231 57.0533 38.6863 55.5321 37.8128C54.0173 36.9393 52.8197 35.6748 51.9392 34.0193C51.0656 32.3639 50.6289 30.3597 50.6289 28.0068C50.6289 25.6469 51.0727 23.6393 51.9603 21.9838C52.8479 20.3283 54.0525 19.0674 55.5739 18.2009C57.0956 17.3274 58.8076 16.8906 60.7098 16.8906C61.9636 16.8906 63.1261 17.0668 64.1967 17.4189C65.2745 17.7712 66.2288 18.2855 67.0603 18.9617C67.8913 19.631 68.5679 20.4516 69.0891 21.4238C69.6174 22.3959 69.9554 23.5089 70.1033 24.7629Z" fill="white"/>
<path d="M76.3141 17.1836V38.8243H71.8125V17.1836H76.3141Z" fill="white"/>
<path d="M85.7654 39.1417C84.1241 39.1417 82.7051 38.793 81.5072 38.0955C80.3165 37.3911 79.3974 36.4119 78.7491 35.158C78.1013 33.897 77.7773 32.4353 77.7773 30.7728C77.7773 29.0962 78.1013 27.631 78.7491 26.3771C79.3974 25.1161 80.3165 24.1369 81.5072 23.4394C82.7051 22.735 84.1241 22.3828 85.7654 22.3828C87.4072 22.3828 88.823 22.735 90.0132 23.4394C91.211 24.1369 92.1339 25.1161 92.7817 26.3771C93.4301 27.631 93.754 29.0962 93.754 30.7728C93.754 32.4353 93.4301 33.897 92.7817 35.158C92.1339 36.4119 91.211 37.3911 90.0132 38.0955C88.823 38.793 87.4072 39.1417 85.7654 39.1417ZM85.7866 35.6546C86.5333 35.6546 87.1567 35.4433 87.6572 35.0206C88.1572 34.5909 88.5339 34.0062 88.7877 33.2666C89.0485 32.5269 89.1784 31.685 89.1784 30.7411C89.1784 29.7971 89.0485 28.9553 88.7877 28.2156C88.5339 27.476 88.1572 26.8913 87.6572 26.4616C87.1567 26.0318 86.5333 25.817 85.7866 25.817C85.0328 25.817 84.3991 26.0318 83.885 26.4616C83.3773 26.8913 82.9936 27.476 82.7328 28.2156C82.4795 28.9553 82.3523 29.7971 82.3523 30.7411C82.3523 31.685 82.4795 32.5269 82.7328 33.2666C82.9936 34.0062 83.3773 34.5909 83.885 35.0206C84.3991 35.4433 85.0328 35.6546 85.7866 35.6546Z" fill="white"/>
<path d="M105.604 31.9136V22.5938H110.105V38.8243H105.783V35.8761H105.614C105.248 36.8272 104.639 37.5915 103.786 38.1691C102.941 38.7468 101.909 39.0356 100.69 39.0356C99.6051 39.0356 98.6507 38.7891 97.8268 38.2959C97.0024 37.8028 96.3578 37.1019 95.8931 36.1932C95.435 35.2844 95.2024 34.196 95.1953 32.928V22.5938H99.6969V32.1249C99.704 33.083 99.9611 33.8403 100.468 34.3968C100.976 34.9533 101.655 35.2316 102.508 35.2316C103.05 35.2316 103.557 35.1083 104.03 34.8617C104.501 34.6082 104.882 34.2348 105.17 33.7417C105.467 33.2486 105.611 32.6392 105.604 31.9136Z" fill="white"/>
<path d="M118.196 39.0885C116.964 39.0885 115.848 38.7715 114.847 38.1374C113.853 37.4964 113.065 36.556 112.48 35.3161C111.902 34.0692 111.613 32.5406 111.613 30.7302C111.613 28.8704 111.913 27.3241 112.512 26.0914C113.111 24.8515 113.907 23.9252 114.9 23.3123C115.9 22.6924 116.995 22.3825 118.186 22.3825C119.095 22.3825 119.852 22.5374 120.458 22.8474C121.071 23.1503 121.564 23.5307 121.937 23.9886C122.318 24.4394 122.606 24.8832 122.803 25.32H122.941V17.1836H127.432V38.8243H122.994V36.2248H122.803C122.593 36.6757 122.293 37.123 121.906 37.5668C121.525 38.0036 121.028 38.3664 120.415 38.6552C119.81 38.944 119.07 39.0885 118.196 39.0885ZM119.623 35.5063C120.349 35.5063 120.962 35.3091 121.462 34.9146C121.969 34.513 122.356 33.953 122.624 33.2345C122.899 32.5159 123.036 31.6741 123.036 30.709C123.036 29.7439 122.902 28.9057 122.634 28.1941C122.367 27.4827 121.98 26.9332 121.473 26.5457C120.965 26.1583 120.349 25.9646 119.623 25.9646C118.883 25.9646 118.26 26.1653 117.753 26.5669C117.246 26.9684 116.862 27.5249 116.601 28.2364C116.34 28.9479 116.21 29.7721 116.21 30.709C116.21 31.653 116.34 32.4878 116.601 33.2133C116.869 33.9319 117.252 34.4954 117.753 34.904C118.26 35.3055 118.883 35.5063 119.623 35.5063Z" fill="white"/>
</g>
<defs>
<clipPath id="clip0_4317_408">
<rect width="127.717" height="50" fill="white"/>
</clipPath>
</defs>
</svg>
